<!DOCTYPE svg PUBLIC "-//W3C//DTD SVG 1.1//EN" "http://www.w3.org/Graphics/SVG/1.1/DTD/svg11.dtd">

<!-- Uploaded to: SVG Repo, www.svgrepo.com, Transformed by: SVG Repo Mixer Tools -->
<svg fill="#853229" height="124px" width="124px" version="1.1" id="Layer_1" xmlns="http://www.w3.org/2000/svg" xmlns:xlink="http://www.w3.org/1999/xlink" viewBox="0 0 512.028 512.028" xml:space="preserve" stroke="#853229">

<g id="SVGRepo_bgCarrier" stroke-width="0"/>

<g id="SVGRepo_tracerCarrier" stroke-linecap="round" stroke-linejoin="round"/>

<g id="SVGRepo_iconCarrier"> <g transform="translate(0 -1)"> <g> <path d="M497.937,2.308c-8.811-3.2-18.581-0.277-24.213,7.125c-13.504,17.685-57.813,66.005-100.309,77.013 c-6.656,1.728-12.096,6.592-14.571,13.013c-0.273,0.693-27.706,70.358-102.337,146.254 c-74.638-75.899-102.072-145.569-102.346-146.262c-2.475-6.421-7.915-11.285-14.571-13.013C88.54,73.19,38.684,9.873,38.172,9.254 C32.433,1.873,22.47-0.943,13.852,2.385C5.126,5.67-0.484,14.246,0.049,23.548c0.149,2.88,4.331,71.168,34.645,139.029 c2.219,4.971,6.741,15.125,32.363,19.179c-3.093,13.675-1.685,20.48,3.669,26.965c4.761,5.698,69.477,74.432,116.06,106.757 l-8.204,8.206c-6.568-10.505-18.245-17.449-31.323-17.699h-0.405c-11.605,0-21.12,9.28-21.333,20.907 c-0.192,10.411,7.104,19.221,16.939,21.291c2.016,8.677,5.424,17.004,10.131,24.785L48.928,476.612 c-8.341,8.341-8.341,21.824,0,30.165c4.16,4.16,9.621,6.251,15.083,6.251c5.461,0,10.923-2.091,15.083-6.251l103.731-103.712 c7.391,4.337,15.368,7.512,23.721,9.395c2.155,9.579,10.688,16.661,20.8,16.661h0.704c11.797-0.405,21.035-10.24,20.629-22.037 c-0.359-11.464-5.932-21.817-14.496-28.53c14.804-12.29,28.746-22.708,40.357-30.917l22.987,23.096 c-0.773,0.185-1.549,0.353-2.332,0.49c-17.301,3.051-30.315,18.133-30.869,35.861c-0.405,11.797,8.832,21.632,20.629,22.037h0.704 c10.112,0,18.645-7.083,20.8-16.661c8.204-1.853,16.062-4.963,23.406-9.237l103.001,103.49c4.16,4.203,9.643,6.315,15.147,6.315 c5.44,0,10.859-2.069,15.019-6.187c8.384-8.299,8.427-21.803,0.128-30.165L360.246,373.277c4.771-7.84,8.259-16.284,10.297-25.093 c9.835-2.069,17.131-10.88,16.939-21.291c-0.213-11.627-9.728-20.907-21.333-20.907h-0.405 c-17.877,0.341-33.152,13.184-36.309,30.549c-0.288,1.577-0.666,3.127-1.128,4.649l-16.5-16.578 c46.304-25.85,125.197-109.542,130.451-115.856c5.397-6.421,6.827-13.248,3.691-26.987c25.621-4.053,30.144-14.187,32.363-19.136 c30.379-68.053,33.557-136.491,33.685-139.371C512.38,13.935,506.684,5.466,497.937,2.308z M109.574,187.964 c1.408-5.163,3.627-12.309,5.888-18.816c2.304-6.571,1.237-13.845-2.816-19.477c-4.075-5.632-10.197-9.024-17.579-8.875 c-8.256,0.149-18.411-0.683-24.085-1.728c-7.765-18.517-13.44-37.013-17.6-53.739c18.581,15.552,41.109,30.827,65.152,39.253 c10.667,23.424,42.432,84.928,107.819,151.317l-8.811,8.811C183.623,263.676,128.156,207.526,109.574,187.964z M442.023,139.076 c-5.675,1.067-15.829,1.856-24.085,1.728c-6.613-0.043-13.504,3.243-17.579,8.896c-4.053,5.632-5.12,12.907-2.816,19.456 c2.261,6.507,4.48,13.653,5.888,18.795c-19.691,20.736-79.936,81.664-113.045,99.755c-9.323,5.099-20.139,11.136-30.379,18.091 c-3.233,2.212-6.742,4.636-10.483,7.272l22.078-22.065c0.079-0.079,0.147-0.168,0.225-0.249l11.412-11.412 c67.669-67.669,100.395-130.923,111.232-154.752c24.085-8.448,46.507-23.744,64.917-39.339 C455.377,101.956,449.788,120.538,442.023,139.076z"/> </g> </g> </g>

</svg>