<!DOCTYPE svg PUBLIC "-//W3C//DTD SVG 1.1//EN" "http://www.w3.org/Graphics/SVG/1.1/DTD/svg11.dtd">

<!-- Uploaded to: SVG Repo, www.svgrepo.com, Transformed by: SVG Repo Mixer Tools -->
<svg fill="#853229" version="1.1" id="Layer_1" xmlns="http://www.w3.org/2000/svg" xmlns:xlink="http://www.w3.org/1999/xlink" width="124px" height="124px" viewBox="0 0 74.482 50.814" xml:space="preserve" stroke="#853229">

<g id="SVGRepo_bgCarrier" stroke-width="0"/>

<g id="SVGRepo_tracerCarrier" stroke-linecap="round" stroke-linejoin="round"/>

<g id="SVGRepo_iconCarrier"> <g> <path d="M72.798,7.995c0,0-11.777-0.182-16.125-1.292C52.322,5.584,41.866,0.07,41.866,0.07c-1.202-0.305-2.422,0.418-2.729,1.621 l-1.962,7.688l3.45,19.397c0.085,0.488,0.157,0.991,0.207,1.496c0.07,0.698,0.103,1.4,0.099,2.09 c4.164-0.328,8.322,0.302,12.172,1.812c0.009,0,0.015,0.002,0.019,0.002c2.084,0.759,4.042,1.752,5.832,2.945 c0.864,0.58,1.356,1.353,1.497,2.119c0.321,0.958,0.173,1.948-0.468,2.596c-1.107,1.127-2.963,1.104-4.285,0.176 c-0.927-0.655-1.898-1.235-2.903-1.733c-0.027-0.014-0.054-0.027-0.08-0.034c-3.767-1.703-8.208-2.412-12.841-1.721 c-0.771,2.244-1.945,4.327-3.446,6.146c2.327,2.64,5.446,4.639,9.111,5.576c9.286,2.376,18.732-2.858,21.75-11.812 c0.151-0.438,0.282-0.888,0.398-1.341l6.728-26.367C74.721,9.526,73.995,8.3,72.798,7.995z M51.184,19.323 c-0.624,2.436-3.098,3.905-5.524,3.28c-2.431-0.62-3.896-3.098-3.277-5.53c0.623-2.438,3.096-3.906,5.525-3.281 C50.336,14.411,51.801,16.889,51.184,19.323z M64.198,22.657c-0.618,2.434-3.091,3.9-5.521,3.28 c-2.431-0.625-3.9-3.103-3.275-5.536c0.623-2.433,3.097-3.9,5.524-3.28C63.356,17.746,64.822,20.224,64.198,22.657z"/> <path d="M37.523,37.05c0.39-1.285,0.627-2.624,0.694-3.995c0.006-0.042,0.006-0.087,0.006-0.131 c0.035-0.785,0.012-1.585-0.068-2.389c-0.045-0.431-0.103-0.862-0.18-1.287l-2.411-13.56L33.211,2.454 c-0.076-0.439-0.476-0.753-0.918-0.74c-1.484,0.641-11.079,4.763-15.337,5.521c-1.489,0.266-3.877,0.399-7.1,0.399 c-2.035,0-4.104-0.054-5.791-0.112C2.386,7.462,1.09,7.394,0.62,7.365C0.437,7.428,0.276,7.546,0.159,7.708 C0.024,7.906-0.03,8.143,0.016,8.38L4.78,35.174c0.07,0.418,0.166,0.843,0.273,1.271c1.913,7.452,8.618,12.66,16.304,12.66 c0.991,0,1.99-0.089,2.977-0.266c4.279-0.769,7.928-3.124,10.415-6.375c0.879-1.146,1.609-2.407,2.173-3.744 C37.151,38.178,37.353,37.618,37.523,37.05z M24.898,13.634c2.47-0.441,4.827,1.207,5.267,3.68c0.442,2.474-1.2,4.836-3.676,5.28 c-2.465,0.439-4.825-1.208-5.265-3.681C20.784,16.44,22.429,14.078,24.898,13.634z M7.997,21.274 c-0.444-2.473,1.2-4.838,3.671-5.279c2.47-0.439,4.827,1.207,5.27,3.683c0.441,2.473-1.205,4.833-3.674,5.277 C10.794,25.396,8.437,23.747,7.997,21.274z M32.262,36.479c-0.037,0.026-0.072,0.05-0.113,0.073 c-5.812,3.5-12.719,4.73-19.384,3.46c-2.093-0.399-3.303-2.199-2.756-3.676c0.543-1.487,2.237-2.236,3.828-1.94 c5.285,1.011,10.761,0.03,15.373-2.744c0.818-0.487,1.801-0.646,2.679-0.438c0.61,0.134,1.167,0.444,1.583,0.933 C34.468,33.318,33.992,35.366,32.262,36.479z"/> </g> </g>

</svg>